<svg xmlns="http://www.w3.org/2000/svg" width="61" height="61" viewBox="0 0 61 61">
  <g id="colaboracion" transform="translate(0.5 0.5)">
    <g id="Grupo_36" data-name="Grupo 36" transform="translate(24)">
      <g id="Grupo_35" data-name="Grupo 35">
        <path id="Trazado_45" data-name="Trazado 45" d="M198,0a6,6,0,1,0,6,6A6,6,0,0,0,198,0Zm0,10a4,4,0,1,1,4-4A4,4,0,0,1,198,10Z" transform="translate(-192)" fill="#7ea00e" stroke="#7ea00e" stroke-width="1"/>
      </g>
    </g>
    <g id="Grupo_38" data-name="Grupo 38" transform="translate(21 13)">
      <g id="Grupo_37" data-name="Grupo 37">
        <path id="Trazado_46" data-name="Trazado 46" d="M181,104h-.236l-.211.1a7.972,7.972,0,0,1-7.106,0l-.211-.1H173a5.006,5.006,0,0,0-5,5v6a3,3,0,0,0,3,3h12a3,3,0,0,0,3-3v-6A5.006,5.006,0,0,0,181,104Zm3,11a1,1,0,0,1-1,1H171a1,1,0,0,1-1-1v-6a3,3,0,0,1,2.787-2.992,10.008,10.008,0,0,0,8.426,0A3,3,0,0,1,184,109Z" transform="translate(-168 -104)" fill="#7ea00e" stroke="#7ea00e" stroke-width="1"/>
      </g>
    </g>
    <g id="Grupo_40" data-name="Grupo 40" transform="translate(45 33)">
      <g id="Grupo_39" data-name="Grupo 39">
        <path id="Trazado_47" data-name="Trazado 47" d="M366,264a6,6,0,1,0,6,6A6,6,0,0,0,366,264Zm0,10a4,4,0,1,1,4-4A4,4,0,0,1,366,274Z" transform="translate(-360 -264)" fill="#7ea00e" stroke="#7ea00e" stroke-width="1"/>
      </g>
    </g>
    <g id="Grupo_42" data-name="Grupo 42" transform="translate(42 46)">
      <g id="Grupo_41" data-name="Grupo 41">
        <path id="Trazado_48" data-name="Trazado 48" d="M349,368h-.236l-.211.1a7.972,7.972,0,0,1-7.106,0l-.211-.1H341a5.006,5.006,0,0,0-5,5v6a3,3,0,0,0,3,3h12a3,3,0,0,0,3-3v-6A5.006,5.006,0,0,0,349,368Zm3,11a1,1,0,0,1-1,1H339a1,1,0,0,1-1-1v-6a3,3,0,0,1,2.787-2.992,10.008,10.008,0,0,0,8.426,0A3,3,0,0,1,352,373Z" transform="translate(-336 -368)" fill="#7ea00e" stroke="#7ea00e" stroke-width="1"/>
      </g>
    </g>
    <g id="Grupo_44" data-name="Grupo 44" transform="translate(3 33)">
      <g id="Grupo_43" data-name="Grupo 43">
        <path id="Trazado_49" data-name="Trazado 49" d="M30,264a6,6,0,1,0,6,6A6,6,0,0,0,30,264Zm0,10a4,4,0,1,1,4-4A4,4,0,0,1,30,274Z" transform="translate(-24 -264)" fill="#7ea00e" stroke="#7ea00e" stroke-width="1"/>
      </g>
    </g>
    <g id="Grupo_46" data-name="Grupo 46" transform="translate(0 46)">
      <g id="Grupo_45" data-name="Grupo 45">
        <path id="Trazado_50" data-name="Trazado 50" d="M13,368h-.236l-.211.1a7.973,7.973,0,0,1-7.106,0l-.211-.1H5a5.006,5.006,0,0,0-5,5v6a3,3,0,0,0,3,3H15a3,3,0,0,0,3-3v-6A5.006,5.006,0,0,0,13,368Zm3,11a1,1,0,0,1-1,1H3a1,1,0,0,1-1-1v-6a3,3,0,0,1,2.787-2.992,10.008,10.008,0,0,0,8.426,0A3,3,0,0,1,16,373Z" transform="translate(0 -368)" fill="#7ea00e" stroke="#7ea00e" stroke-width="1"/>
      </g>
    </g>
    <g id="Grupo_48" data-name="Grupo 48" transform="translate(20 48.999)">
      <g id="Grupo_47" data-name="Grupo 47">
        <path id="Trazado_51" data-name="Trazado 51" d="M179.919,393.78l0,0a1,1,0,0,0-1.312-.528h0a22.182,22.182,0,0,1-14.263.982l.936-.275a1,1,0,0,0-.562-1.92l-4,1.173c-.015,0-.026.017-.04.022a.99.99,0,0,0-.258.143.878.878,0,0,0-.1.063.969.969,0,0,0-.245.34,1,1,0,0,0-.076.413,3.079,3.079,0,0,0,.1.4c.006.014,0,.03.011.044l2,3.827a1,1,0,1,0,1.774-.926l-.814-1.556a24.071,24.071,0,0,0,16.319-.888A1,1,0,0,0,179.919,393.78Z" transform="translate(-159.998 -391.995)" fill="#7ea00e" stroke="#7ea00e" stroke-width="1"/>
      </g>
    </g>
    <g id="Grupo_50" data-name="Grupo 50" transform="translate(38 7.828)">
      <g id="Grupo_49" data-name="Grupo 49">
        <path id="Trazado_52" data-name="Trazado 52" d="M322.7,81.087a1,1,0,0,0-1.414,0L319.876,82.5A23.964,23.964,0,0,0,305.39,62.7a1,1,0,0,0-.784,1.84,21.967,21.967,0,0,1,13.227,17.673L316.7,81.087a1,1,0,0,0-1.414,1.414l3,3a1,1,0,0,0,1.414,0l0,0,3-3A1,1,0,0,0,322.7,81.087Z" transform="translate(-303.998 -62.622)" fill="#7ea00e" stroke="#7ea00e" stroke-width="1"/>
      </g>
    </g>
    <g id="Grupo_52" data-name="Grupo 52" transform="translate(6 6.017)">
      <g id="Grupo_51" data-name="Grupo 51">
        <path id="Trazado_53" data-name="Trazado 53" d="M63.971,50.777a.93.93,0,0,0-.026-.173c0-.009-.011-.015-.015-.025s0-.017,0-.025a.959.959,0,0,0-.094-.138,1.01,1.01,0,0,0-.114-.165.938.938,0,0,0-.195-.133.879.879,0,0,0-.112-.081l-4-1.827a1,1,0,0,0-.83,1.818l2.071.947A23.963,23.963,0,0,0,48,72.118a1,1,0,0,0,2,0A21.966,21.966,0,0,1,60.823,53.174L60.1,54.685a1,1,0,0,0,.467,1.333.985.985,0,0,0,.433.1,1,1,0,0,0,.9-.567l2-4.173a.045.045,0,0,1,.008-.031.961.961,0,0,0,.054-.212A1.036,1.036,0,0,0,64,50.97,1,1,0,0,0,63.971,50.777Z" transform="translate(-48 -48.134)" fill="#7ea00e" stroke="#7ea00e" stroke-width="1"/>
      </g>
    </g>
  </g>
</svg>
