<svg xmlns="http://www.w3.org/2000/svg" width="61.072" height="61.06" viewBox="0 0 61.072 61.06">
  <g id="ubicacion" transform="translate(0.536 -4.686)">
    <g id="Grupo_54" data-name="Grupo 54" transform="translate(0 5.246)">
      <g id="Grupo_53" data-name="Grupo 53" transform="translate(0 0)">
        <path id="Trazado_54" data-name="Trazado 54" d="M95.023,46.5c2.471,3.543,4.938,6.711,6.573,8.752.238.3.461.572.677.838H97.34a1.017,1.017,0,0,0,0,2.034h16a1.017,1.017,0,0,0,0-2.034h-4.934c.216-.265.439-.541.678-.838,1.634-2.034,4.1-5.209,6.572-8.752a89.607,89.607,0,0,0,6.606-10.827c2.042-4.078,3.078-7.463,3.078-10.062a20.5,20.5,0,0,0-5.857-14.4.989.989,0,0,0-.972-.278,1.009,1.009,0,0,0-.715.726,1.028,1.028,0,0,0,.272.989,18.456,18.456,0,0,1,5.272,12.963c0,2.276-.962,5.351-2.86,9.139a87.578,87.578,0,0,1-6.456,10.575c-2.438,3.5-4.875,6.63-6.49,8.643-.537.669-1.02,1.261-1.432,1.761a1,1,0,0,1-1.524,0c-.412-.5-.895-1.092-1.432-1.761-1.615-2.012-4.052-5.145-6.49-8.643A87.579,87.579,0,0,1,90.2,34.754c-1.9-3.788-2.86-6.863-2.86-9.139a18.353,18.353,0,0,1,11-16.891,17.838,17.838,0,0,1,14.01,0,.987.987,0,0,0,.993-.124,1.025,1.025,0,0,0-.212-1.749A19.9,19.9,0,0,0,86.912,17.689a20.558,20.558,0,0,0-1.572,7.926c0,2.6,1.036,5.984,3.078,10.067A89.542,89.542,0,0,0,95.023,46.5Z" transform="translate(-75.339 -5.246)" fill="#7ea00e" stroke="#86a61d" stroke-width="1"/>
        <path id="Trazado_55" data-name="Trazado 55" d="M180.661,84.119a1.017,1.017,0,0,0,0-2.034,10.044,10.044,0,0,0-9.808,8.185,10.205,10.205,0,0,0,5.981,11.378A9.908,9.908,0,0,0,188.975,97.9a10.3,10.3,0,0,0-1.243-12.84.989.989,0,0,0-.973-.277,1.009,1.009,0,0,0-.714.726,1.028,1.028,0,0,0,.273.989,8.238,8.238,0,0,1,1,10.272,7.926,7.926,0,0,1-9.713,3,8.164,8.164,0,0,1-4.785-9.1A8.035,8.035,0,0,1,180.661,84.119Z" transform="translate(-150.66 -72.929)" fill="#7ea00e" stroke="#86a61d" stroke-width="1"/>
        <path id="Trazado_56" data-name="Trazado 56" d="M59.624,376.467l-6.15-11.186a3.1,3.1,0,0,0-2.721-1.6H43.626a1.017,1.017,0,0,0,0,2.034h7.127a1.105,1.105,0,0,1,.977.555l6.148,11.186a.928.928,0,0,1-.009.94,1.1,1.1,0,0,1-.968.539H3.1a1.1,1.1,0,0,1-.967-.539.928.928,0,0,1-.009-.94l6.148-11.186a1.1,1.1,0,0,1,.976-.555h7.127a1.017,1.017,0,0,0,0-2.034H9.249a3.1,3.1,0,0,0-2.723,1.6L.377,376.467a2.992,2.992,0,0,0,.031,2.96A3.07,3.07,0,0,0,3.1,380.97H56.9a3.07,3.07,0,0,0,2.692-1.544A2.992,2.992,0,0,0,59.624,376.467Z" transform="translate(0 -320.971)" fill="#7ea00e" stroke="#86a61d" stroke-width="1"/>
        <path id="Trazado_57" data-name="Trazado 57" d="M357.869,406.351h-4a.994.994,0,0,0-.555.171l-3,2.034a1.028,1.028,0,0,0-.277,1.41.99.99,0,0,0,1.387.282l2.745-1.863h3.7a1.017,1.017,0,0,0,0-2.034Z" transform="translate(-308.868 -358.554)" fill="#7ea00e" stroke="#86a61d" stroke-width="1"/>
        <path id="Trazado_58" data-name="Trazado 58" d="M366.937,458.568a1.008,1.008,0,0,0,1,1.017h8a1.017,1.017,0,0,0,0-2.034h-8A1.008,1.008,0,0,0,366.937,458.568Z" transform="translate(-323.936 -403.653)" fill="#7ea00e" stroke="#86a61d" stroke-width="1"/>
        <path id="Trazado_59" data-name="Trazado 59" d="M93.337,410.418a1,1,0,0,0,.958-.721,1.025,1.025,0,0,0-.4-1.141l-3-2.034a.994.994,0,0,0-.556-.171h-4a1.017,1.017,0,0,0,0,2.034h3.7l2.748,1.863A.986.986,0,0,0,93.337,410.418Z" transform="translate(-75.337 -358.553)" fill="#7ea00e" stroke="#86a61d" stroke-width="1"/>
        <path id="Trazado_60" data-name="Trazado 60" d="M60.737,457.551a1.017,1.017,0,0,0,0,2.034h8a1.017,1.017,0,0,0,0-2.034Z" transform="translate(-52.737 -403.653)" fill="#7ea00e" stroke="#86a61d" stroke-width="1"/>
      </g>
    </g>
  </g>
</svg>
