<svg xmlns="http://www.w3.org/2000/svg" width="691" height="676" viewBox="0 0 691 676">
  <g id="Scene_Home" data-name="Scene/Home" opacity="0.749">
    <g id="Background_Shape_2" data-name="Background Shape 2" transform="translate(13 244)" opacity="0.346">
      <path id="Background_Shape" data-name="Background Shape" d="M-.206,172.385C-7.1,95.336-377.036-53.376-445.713,19.6s-2.653,209.942,141.269,245.014S6.688,249.434-.206,172.385Z" transform="translate(473)" fill="#f2f2f2"/>
      <path id="Background_Shape-2" data-name="Background Shape" d="M.144,146.448C6.32,80.992,337.692-45.345,399.21,16.654s45.947,192.405-82.972,222.2S-6.032,211.9.144,146.448Z" transform="translate(244 76)" fill="#566d0b"/>
    </g>
    <g id="Hanging_Lamp" data-name="Hanging Lamp" transform="translate(9)">
      <g id="Light" transform="translate(0 152.673)">
        <ellipse id="Hanging_Lamp_Light" data-name="Hanging Lamp Light" cx="42.5" cy="22.5" rx="42.5" ry="22.5" transform="translate(7 12)" fill="#f2f2f2"/>
        <path id="Hanging_Lamp-2" data-name="Hanging Lamp" d="M99,50C99,22.386,76.838,0,49.5,0S0,22.386,0,50" transform="translate(0)" fill="#566d0b"/>
      </g>
      <rect id="Wire" width="5" height="160" transform="translate(47)" fill="#566d0b"/>
    </g>
    <g id="Hanging_Lamp-3" data-name="Hanging Lamp" transform="translate(99)" opacity="0.7">
      <g id="Light-2" data-name="Light" transform="translate(0 113)">
        <ellipse id="Hanging_Lamp_Light-2" data-name="Hanging Lamp Light" cx="31.768" cy="18.158" rx="31.768" ry="18.158" transform="translate(5.232 9.684)" fill="#f2f2f2"/>
        <path id="Hanging_Lamp-4" data-name="Hanging Lamp" d="M74,40.351C74,18.066,57.435,0,37,0S0,18.066,0,40.351" transform="translate(0)" fill="#566d0b"/>
      </g>
      <rect id="Wire-2" data-name="Wire" width="5" height="136" transform="translate(35)" fill="#566d0b"/>
    </g>
    <g id="Lamp" transform="translate(508 198)">
      <path id="Body" d="M0,24.236,18.568,5.66a8,8,0,0,1,11.316,0L79.316,55.113A16,16,0,0,1,84,66.424V394" transform="translate(60 12)" fill="none" stroke="#cbcbcb" stroke-miterlimit="10" stroke-width="8"/>
      <rect id="Lamp_Base" data-name="Lamp Base" width="59" height="7" rx="3" transform="translate(114 405)" fill="#afb9c5"/>
      <g id="Lamp_Top" data-name="Lamp Top" transform="translate(48.79 1) rotate(45)">
        <path id="Lamp-2" data-name="Lamp" d="M33,0h0A33,33,0,0,1,66,33V61a0,0,0,0,1,0,0H0a0,0,0,0,1,0,0V33A33,33,0,0,1,33,0Z" transform="translate(0.03 1.384)" fill="#c5cfd6"/>
        <ellipse id="Lamp-3" data-name="Lamp" cx="33" cy="6.5" rx="33" ry="6.5" transform="translate(0.209 54.945)" fill="#f2f2f2"/>
      </g>
    </g>
    <g id="Big_Leaf_Plant" data-name="Big Leaf Plant" transform="translate(0 371)">
      <g id="Big_Ass_Leaf" data-name="Big Ass Leaf" transform="translate(22)">
        <path id="leaf" d="M24.258.173a16.915,16.915,0,0,1,8.586.9c5.665,2.4,7.275,9.1,7.2,14.536-.084,5.855-1.327,12.249,3.124,16.966,2.046,2.169,4.591,3.828,6.6,6.037a28.536,28.536,0,0,1,5.078,7.96c2.29,5.326,3.414,11.59,1.32,17.177-1.844,4.919-6.483,9.359-5.48,14.953C51.729,84.543,57.612,89,61.29,93.351c4.163,4.919,8,11.205,8.625,17.656.6,6.182-2.087,12.434-6.217,17.107C55.448,137.451,43.045,142.028,30.54,142c-5.31-.012-11.321-.252-15.9-3.105a8.763,8.763,0,0,1-3.005-3.247,10.586,10.586,0,0,0-2.906-2.908,17.25,17.25,0,0,1-5.535-7.392c-4.538-11.233-.911-25.129,5.441-35.1,1.505-2.363,2.737-4.637,2.006-7.454C9.874,79.848,8,77.2,6.34,74.669a65.318,65.318,0,0,1-4.792-7.582A17.2,17.2,0,0,1,.066,58.2,30.237,30.237,0,0,1,6.578,42.336C10,37.83,14.022,33.518,14.031,27.615c.01-6.257-4.173-11.824-2.391-18.186a12.123,12.123,0,0,1,4.609-6.916C18.539,1,21.564.5,24.258.173Z" transform="translate(1 1)" fill="#566d0b"/>
        <path id="middle_thing" data-name="middle thing" d="M1.386,1.176A1.442,1.442,0,0,1,3.222.051c1.033.289,1.013,1.254.986,2.114a28.41,28.41,0,0,0,.934,7.776C6.462,15.274,8.9,20.186,10.836,25.308s2.839,10.4,1.705,15.816C11.473,46.23,9.795,51.2,8.7,56.315c-.964,4.506-1.989,9.257-.522,13.751,1.412,4.326,4.534,7.849,6.783,11.758a55.439,55.439,0,0,1,6.995,26.31,49.2,49.2,0,0,1-.983,12.828c-.573,2.423-1.343,5.7-3.419,7.37-.957.771-2.595,1.038-3.4-.1-.757-1.071-.093-2.73.147-3.872a58.7,58.7,0,0,0,1-15.015,54.212,54.212,0,0,0-2.346-14.36A48.6,48.6,0,0,0,6.84,83.032C4.252,79.191,1.562,75.341.493,70.789c-1.086-4.623-.2-9.327.976-13.862,1.248-4.8,2.883-9.455,4.573-14.122A24.78,24.78,0,0,0,7.363,29.2C5.567,19.794.76,10.968,1.386,1.176Z" transform="translate(22 10)" fill="#c5cfd6"/>
      </g>
      <g id="Big_Ass_Leaf-2" data-name="Big Ass Leaf" transform="translate(32 11)">
        <path id="leaf-2" data-name="leaf" d="M90.892,1.582a21.492,21.492,0,0,1,9.592,5.536c5.373,5.791,3.724,14.543.758,20.935-3.193,6.88-8.031,13.8-5.3,21.69,1.254,3.629,3.362,6.916,4.551,10.573a36.871,36.871,0,0,1,1.749,12.056c-.129,7.49-2.122,15.483-7.531,21-4.763,4.859-12.551,7.7-14.332,14.833-1.858,7.445,2.684,15.781,4.7,22.835,2.283,7.983,3.455,17.411.784,25.367-2.559,7.625-9.02,13.619-16.334,17-14.613,6.75-31.58,5.712-46.232-.828-6.221-2.777-13.145-6.188-17.011-11.946a11.264,11.264,0,0,1-1.809-5.4A13.591,13.591,0,0,0,2.6,150.278,22.24,22.24,0,0,1,.02,138.656c.615-15.645,12.214-30.192,24.936-38.684,3.015-2.012,5.662-4.06,6.293-7.772.659-3.874-.139-7.986-.748-11.839-.6-3.807-1.537-7.6-1.612-11.459a22.446,22.446,0,0,1,2.959-11.283c3.6-6.647,9.379-11.689,16.021-15.372,6.4-3.547,13.392-6.555,16.523-13.532,3.319-7.4,1.355-16.154,6.807-22.751C73.458,3.233,76.625.807,80.262.182,83.749-.417,87.558.57,90.892,1.582Z" transform="translate(0 0)" fill="#566d0b"/>
        <path id="middle_thing-2" data-name="middle thing" d="M51.651.811A1.838,1.838,0,0,1,54.387.44c1.057.883.528,2.016.046,3.02a37.22,37.22,0,0,0-2.98,9.7c-1.248,7.006-.968,14.1-1.389,21.182s-2.128,13.805-6.289,19.624c-3.923,5.486-8.49,10.5-12.446,15.977-3.487,4.831-7.174,9.92-7.812,16.012-.614,5.863,1.191,11.672,1.773,17.48,1.2,12.023-1.084,23.737-5.6,34.823a64.286,64.286,0,0,1-7.867,14.676c-1.939,2.569-4.554,6.043-7.858,6.936-1.524.412-3.578-.131-3.922-1.906-.323-1.665,1.321-3.282,2.2-4.508A76.711,76.711,0,0,0,11.275,136.2a71.04,71.04,0,0,0,4.778-18.235,63.555,63.555,0,0,0-.895-17.357c-1.014-5.906-2.143-11.875-1.009-17.826,1.151-6.044,4.647-11.152,8.4-15.9,3.971-5.026,8.323-9.687,12.743-14.327a32.357,32.357,0,0,0,8.673-15.424C46.79,25.049,45.791,12.078,51.651.811Z" transform="translate(32 13)" fill="#c5cfd6"/>
      </g>
      <g id="Big_Ass_Leaf-3" data-name="Big Ass Leaf" transform="translate(0 57)">
        <path id="leaf-3" data-name="leaf" d="M13.306,0C19.2,0,24.382,3.124,27.953,7.558c4.18,5.19,5.024,11.528,6.721,17.714A15.813,15.813,0,0,0,39.517,33.5c2.315,1.9,5.255,2.283,8.026,3.212A18.73,18.73,0,0,1,59.321,48.5c2.155,6.659-.128,13.374.265,20.122.361,6.2,6.471,10.064,11.387,13.035,4.848,2.93,9.215,5.672,10.675,11.379,1.548,6.053,2.068,12.809-.077,18.788-3.57,9.956-14.019,14.34-24.116,15.02-9.163.617-20.684-.352-27.565-7-4.118-3.98-5.609-9.547-5.424-15.085a45.92,45.92,0,0,1,1.679-10.184,45.944,45.944,0,0,0,1.71-7.145c.64-6.484-5.354-7.73-10.455-9.51A24.88,24.88,0,0,1,3.224,65.425C.285,59.881-.948,53.658.814,47.554A20.863,20.863,0,0,1,5.559,39.2c.974-1.059,2.348-1.942,3.227-3.054a4.12,4.12,0,0,0,.359-3.6C7.837,26.931,3.762,22.278,2.3,16.668.989,11.605,1.767,5.3,6.4,2.038A12.089,12.089,0,0,1,13.306,0Z" transform="translate(0 0)" fill="#c5cfd6"/>
        <path id="middle_thing-3" data-name="middle thing" d="M3.338.641C9.585,7.3,11.283,16.325,11.781,25.076c.279,4.907-.011,10.083,1.43,14.843,1.234,4.074,4.126,7.188,7.106,10.131,6,5.925,12.693,11.948,14.448,20.523,1.03,5.032.335,10.23,1.758,15.207a41.827,41.827,0,0,0,6.343,12.788c2.231,3.076,5.138,5.431,7.577,8.3.744.875,1.81,2.164,1.5,3.4-.359,1.447-2.2,1.905-3.511,1.678-3.049-.53-5.616-3.442-7.61-5.558a47.877,47.877,0,0,1-7.407-10.159,42.71,42.71,0,0,1-4.8-13.2c-.8-4.827-.4-9.858-2.223-14.491-3.067-7.8-10.5-12.4-15.883-18.471-6.7-7.571-5.7-16.993-5.015-26.305.377-5.118.752-10.9-1.834-15.57C2.672,6.406.471,4.743.047,2.715-.342.858,1.78-1.019,3.338.641Z" transform="translate(18 14)" fill="#afb9c5"/>
      </g>
      <path id="Base" d="M0,0C0,38.058,6.211,58,39,58S78,38.058,78,0Z" transform="translate(28 181)" fill="#54c0cc"/>
    </g>
    <g id="Table" transform="translate(119 353)">
      <g id="Lamp-4" data-name="Lamp" transform="translate(23)">
        <rect id="Lamp_Base-2" data-name="Lamp Base" width="38" height="9" rx="2" transform="translate(21 144)" fill="#afb9c5"/>
        <path id="Lamp_Body" data-name="Lamp Body" d="M15.5,75a15.5,15.5,0,0,1,0-31H23c6.44-20.872,7.217-44,7.217-44h4.566A167.709,167.709,0,0,0,42,44h6.5a15.5,15.5,0,0,1,0,31Z" transform="translate(8 71)" fill="#566d0b"/>
        <path id="Shade" d="M4.622,1.679S21.811,0,39,0,73.378,1.679,73.378,1.679L78,81.133S58.5,83,39,83,0,81.133,0,81.133Z" fill="#c5cfd6"/>
      </g>
      <path id="Table-2" data-name="Table" d="M104,104V22H21v82H0V0H125V104Z" transform="translate(0 153)" fill="#f2f2f2"/>
    </g>
    <g id="Plant" transform="translate(521 328)">
      <g id="Succulents" transform="translate(13)">
        <path id="Thi_Succs_" data-name="Thi Succs!" d="M.381.208C9.214,21.2,24.229,35.781,32.182,57.6c4.716,12.942,6.682,27.015,6.8,41.427.065,7.828-.071,15.662-.108,23.49-.036,7.634-.243,15.219-.891,22.8-.651,7.625-1.38,15.16-1.7,22.833-.25,5.978-.365,12.932-2.391,18.385-1.611,4.337-5.707,4.972-6.794-.288a42.045,42.045,0,0,1-.461-9.193c.085-3.855.31-7.7.424-11.559.46-15.468-.136-30.938.175-46.412.3-15.119,2.248-30.221.1-45.238-1.776-12.4-6.287-23.051-11.471-33.26C10.874,30.771,5.445,21.187,2.075,10.014A53.84,53.84,0,0,1,0,.03Q.235-.079.381.208Z" transform="translate(3 0)" fill="#1f4f59"/>
        <path id="Thi_Succs_2" data-name="Thi Succs!" d="M.974.617C2.723,1.88,3.7,3.728,4.882,5.551c1.47,2.266,3.2,4.313,4.668,6.581C12.615,16.86,15.308,21.879,18.1,26.8a96.064,96.064,0,0,1,11.326,30.1c2.067,11.2,2.625,22.754,3.492,34.117.92,12.044,1.846,24.176,1.968,36.267.055,5.417.347,11.167-.3,16.546-.4,3.349-1.916,6.2-5.323,6.175-7.237-.057-10.634-8.073-12.053-14.646-2.089-9.679-2.506-19.961-2.175-29.86C15.432,93.558,17.5,81.8,18.4,69.912c.95-12.587.413-24.951-3.914-36.8-2.186-5.989-4.724-11.835-7-17.784A57.489,57.489,0,0,0,4.409,7.831C2.951,5.208,1.142,2.826,0,0Z" transform="translate(0 41)" fill="#54c0cc"/>
        <path id="Thi_Succs_3" data-name="Thi Succs!" d="M17.334.518,18,0a66.162,66.162,0,0,1-2.676,7.341,59.91,59.91,0,0,0-1.729,7.136c-1.255,5.681-2.7,11.234-3.889,16.963C7.36,42.777,7.8,54.99,9.342,67.568c1.453,11.881,3.751,23.745,4.845,35.623a163.552,163.552,0,0,1,.432,29.409c-.588,6.383-2.517,14-7.771,13.361-2.474-.3-3.764-3.281-4.284-6.642-.835-5.4-1.01-11.074-1.335-16.443C.5,110.9.358,98.951.214,87.092.078,75.9-.3,64.494.452,53.587a102.687,102.687,0,0,1,6.2-28.758c1.7-4.61,3.317-9.328,5.225-13.721.915-2.107,2.033-3.97,2.949-6.075C15.563,3.339,16.148,1.6,17.334.518Z" transform="translate(67 16)" fill="#1f4f59"/>
        <path id="Thi_Succs_4" data-name="Thi Succs!" d="M.209.3C1.166-1.3,3.272,3.993,3.593,4.66q-.2-.5-.409-.993A44.1,44.1,0,0,1,7.9,13.734c1.069,3.585,1.987,7.242,2.99,10.853,1.882,6.774,4.31,13.356,6.016,20.191a65.7,65.7,0,0,1,1.678,20.1A171.685,171.685,0,0,0,18.4,86.462c.233,3.418,1.344,6.6,2.1,9.892s1.362,6.632,2.263,9.884c.207-.424.233.993.233,1.1a6.829,6.829,0,0,1-.381,2.265,6.1,6.1,0,0,1-3.841,4.212c-3.456.988-6.666-2.157-7.78-5.477A90.858,90.858,0,0,1,7.755,93.3,70.881,70.881,0,0,1,7.1,79.44c.409-9.179,2.07-18.238,2.519-27.414.489-9.99-1.49-19.376-3.147-29.1A84.98,84.98,0,0,0,3.356,9.134,38.761,38.761,0,0,0,1.048,4.061C.558,3.112-.431,1.418.209.3Z" transform="translate(3 76)" fill="#1f4f59"/>
        <path id="Thi_Succs_5" data-name="Thi Succs!" d="M10.252,35.7c-.4,11.445-1.08,22.8-2.606,34.127C6.089,81.38,4.3,92.9,2.8,104.463c-1.459,11.259-2.987,22.7-2.784,34.121.15,8.409-1.244,22.634,8.1,26.784,9.459,4.2,11.488-13.746,12.109-19.67,1.19-11.366.8-22.852.227-34.28-.593-11.729-1.583-23.4-2.81-35.085-1.363-12.981-2.432-26.02-3.29-39.038-.425-6.439-.529-12.867-.412-19.308C14.048,11.911,13.817,5.77,11.656,0l-.339.246" transform="translate(21 25)" fill="#69a1ac"/>
        <path id="Thi_Succs_6" data-name="Thi Succs!" d="M12.083,5.955c-1.7,2.478-3.416,4.932-5.022,7.557C4.186,18.209,1.587,23.432.8,30.147-.831,44.2.481,59.379.8,73.863c.065,2.96-.31,5.83.857,8.647,1.058,2.554,3.035,4.5,4.92,4.49C10.611,86.977,10,77.1,10,72.746c.012-7.623-.843-15.324-.769-22.94a159.271,159.271,0,0,1,1.626-22.278A128.354,128.354,0,0,1,15.729,6.81c.3-.9,2.429-7.872.415-6.671" transform="translate(68 91)" fill="#54c0cc"/>
        <path id="Thi_Succs_7" data-name="Thi Succs!" d="M14.262,0c-2.653,0-2.637,13.226-2.717,14.925-.288,6.131-.221,12.263-.4,18.395-.4,13.381-.889,26.88-2.9,40.107C7.161,80.547,5.907,87.636,4.557,94.7,3.2,101.789,1.387,108.867.5,116.044c-.855,6.9-.372,13.934-.255,20.867a182.673,182.673,0,0,0,1.242,20.877c.225,1.707.49,3.407.773,5.1a40.455,40.455,0,0,0,.5,4.51c.639,2.152,3.379,2.856,5.224,2.519,4.993-.912,8.182-7.18,9.887-11.76,2.178-5.848,3.334-12.192,4.474-18.356a160.431,160.431,0,0,0,2.4-21.181c.722-14.448-.2-28.911-1.24-43.313-.576-8.009-1.241-15.984-2.258-23.943-1.013-7.926-2.313-15.816-3.16-23.765-.615-5.777-1.221-11.561-1.619-17.36C16.371,8.859,16.291,0,14.262,0" transform="translate(48 22)" fill="#69a1ac"/>
        <path id="Thi_Succs_8" data-name="Thi Succs!" d="M26.941,118.139c-.432-13.886-6.014-74.88-7.284-91.672-.318-4.2-3.375-21.7-3.772-26.467-1.075,1.347-.983,22.309-.972,27.126.012,4.765-.578,9.45-.882,14.189-.31,4.836-7.459,67.285-8.386,71.932-1.846,9.244-3.081,18.729-4.033,28.18C.683,150.639-.76,160.358.482,169.618a28.306,28.306,0,0,0,1.473,6.188c.795,2.116,1.339,4.073,1.977,6.287,1.026,3.567,2.883,6.7,5.736,8.169,5.849,3.019,8.99-3.815,10.583-9.765a159.221,159.221,0,0,0,4.94-29.138c.847-11.04,2.1-22.1,1.75-33.22" transform="translate(32 0)" fill="#54c0cc"/>
      </g>
      <g id="Planter" transform="translate(0 159)">
        <rect id="Vase" width="91" height="91" rx="2" transform="translate(10)" fill="#fff"/>
        <rect id="Leg" width="10" height="113" rx="2" transform="translate(0 10)" fill="#c5cfd6"/>
        <rect id="Leg-2" data-name="Leg" width="10" height="113" rx="2" transform="translate(50 10)" fill="#c5cfd6"/>
        <rect id="Leg-3" data-name="Leg" width="10" height="113" rx="2" transform="translate(101 10)" fill="#c5cfd6"/>
      </g>
    </g>
  </g>
  <g id="A_Human_Standing" data-name="A Human/Standing" transform="translate(148 323)">
    <g id="Head_Front" data-name="Head/Front" transform="translate(72)">
      <g id="Head" transform="translate(54 31)">
        <path id="Head-2" data-name="Head" d="M0,73,8.262,34.49C3.655,29.081.536,22.452,1.057,15.025c1.5-21.4,31.292-16.692,37.086-5.891s5.107,38.2-2.382,40.129c-2.987.77-9.349-1.116-15.825-5.019L24,73Z" fill="#b28b67"/>
      </g>
      <path id="hair" d="M-58.407,23.9A7.5,7.5,0,0,1-59.97,21a29.39,29.39,0,0,1-1-3.3c-.5-2.249-.509-4.836,1.1-6.582a7.548,7.548,0,0,1,5-2.165,9.187,9.187,0,0,1,3.545.449c1.129.371,2.1,1.111,3.2,1.57a14.306,14.306,0,0,1,1.687-7.03,7.008,7.008,0,0,1,5.218-3.4,10.347,10.347,0,0,1,6.357,1.28c.494.267.984.547,1.453.865a4.071,4.071,0,0,0,1.261.693c.513.121.768-.176,1.1-.55a8.368,8.368,0,0,1,1.3-1.168A7.647,7.647,0,0,1-22.6.423a6.649,6.649,0,0,1,2.917,2.109c.666.873,1.14,2.258,2.059,2.866.39.258.665-.084,1.02-.337.533-.38,1.042-.8,1.581-1.169A7.242,7.242,0,0,1-12.57,2.781c1.286-.3,3.064-.228,3.432,1.457A6.954,6.954,0,0,1-9.15,6.186c-.061.876-.125,1.751-.2,2.625a18.954,18.954,0,0,1-.256,1.957,2.863,2.863,0,0,0-.127,1.343c.186.435,1.046.188,1.413.2A5.582,5.582,0,0,1-6.2,12.78a2.286,2.286,0,0,1,1.285,1.189,2.136,2.136,0,0,1,.036,1.118,3.335,3.335,0,0,0,.068,1.147c.974-.48,4.349-1.545,4.774.2a2.731,2.731,0,0,1-.426,1.728,14.979,14.979,0,0,1-1.573,2.395,21.412,21.412,0,0,1-4.19,4.065,2.746,2.746,0,0,1,.716,4.6,3.4,3.4,0,0,1-2.5.725,5.524,5.524,0,0,0-1.033-.082,2.47,2.47,0,0,1-.468.158,13.928,13.928,0,0,1-3.832-.486,12.636,12.636,0,0,1-5.844-3.056,1.8,1.8,0,0,0-1.352-.621c-.5.005-1,.143-1.5.156a10.791,10.791,0,0,1-3.761-1.048,14.189,14.189,0,0,1-1.232,5c-.556,1.223-1.717,1.4-2.858,1.508-3.649.343-7.31-.04-10.963-.035,3.536.8,7.191,1.129,10.7,2.069,1.584.425.375,1.493-.3,2.233a12.87,12.87,0,0,0-2.52,4.32c-1.73-2.255-4.788-3.741-7.5-3.048-2.993.765-5.1,4.813-3.187,7.723,1.111,1.689,3.118,2.341,4.788,3.067-1.3,1.354-1.618,3.354-2.4,5.039a3.606,3.606,0,0,1-1.794,2.06,2.1,2.1,0,0,0-.947.377c-.313.323-.387.684-.786.961a4.434,4.434,0,0,1-5.494-.423,3.586,3.586,0,0,1,.122-4.7c-1.7-.708-4.791-1.618-4.116-4.263-3.679-.244-12.611-6.211-7.674-10.571-2.71-1.531-5.2-5.274-3.459-8.574,1.34-2.541,4.457-3.676,7.015-3.811" transform="translate(103 15)" fill="#191847"/>
    </g>
    <g id="Bottom_Skinny_Jeans_1" data-name="Bottom/Skinny Jeans 1" transform="translate(0 187)">
      <g id="Seat" transform="translate(0 42)">
        <g id="Seat-2" data-name="Seat" transform="translate(55)">
          <path id="Seat_Stuff" data-name="Seat Stuff" d="M27.623,0h77.255L115,124H0Z" fill="#c5cfd6"/>
          <path id="Seat_Stuff-2" data-name="Seat Stuff" d="M27.623,0h23.76L65.6,124H0Z" fill="rgba(0,0,0,0.1)"/>
        </g>
      </g>
      <path id="Skin" d="M57.131,141.549c-1-12.65-2.861-56.444-1-76.715.785-8.557,1.633-16.7,2.465-23.927-17.858,32.116-47.08,79.1-47.08,79.1L0,114.743S13.566,70.049,22.247,51.638c9.91-21.017,19.2-39.015,23.112-45.355,6.151-9.971,16.86-6.492,22.518-.456C76.114.882,89.933,7.236,89.924,14.309,89.895,35.474,70.58,135.223,69.572,141.528c-.534,3.337-3.812,5.375-6.872,5.375C59.977,146.9,57.427,145.292,57.131,141.549Z" transform="translate(180.077 14.929)" fill="#b28b67"/>
      <path id="LegLower" d="M0,111.841,5.118,10.331c3.688-17.553,34.907-9.406,34.894,0-.029,21.355-12.857,95.127-12.866,101.489Z" transform="translate(219.152 8.029) rotate(20)" fill="#44560b"/>
      <g id="Right_Shoe" data-name="Right Shoe" transform="translate(189.086 100.429) rotate(30)">
        <path id="shoe" d="M4.474,5.033A2,2,0,0,0,1.908,6.381L0,13.106A64.242,64.242,0,0,0,.9,21H57.3s2.2-7.268-2.538-7.848-7.87-1.047-7.87-1.047L20.68.419a1,1,0,0,0-1.332.532L17.663,5.039s-4.385,2.046-7.127,2.046Z" transform="translate(1 19)" fill="#e4e4e4"/>
      </g>
      <g id="Right_Shoe-2" data-name="Right Shoe" transform="translate(232 126)">
        <path id="shoe-2" data-name="shoe" d="M4.474,5.033A2,2,0,0,0,1.908,6.381L0,13.106A64.242,64.242,0,0,0,.9,21H57.3s2.2-7.268-2.538-7.848-7.87-1.047-7.87-1.047L20.68.419a1,1,0,0,0-1.332.532L17.663,5.039s-4.385,2.046-7.127,2.046Z" transform="translate(1 19)" fill="#e4e4e4"/>
      </g>
      <path id="Leg_and_Butt" data-name="Leg and Butt" d="M170.77,36.433c0,26.567-12.617,88.537-12.625,94.387L131,130.841S136.96,47.9,135.227,47s-71.051,6.921-91.84,6.921C13.408,53.925,1.006,35.02,0,0H59.386c12.092,1.294,75.162,14.015,98.586,18.388C168,20.261,170.77,29.115,170.77,36.433Z" transform="translate(102)" fill="#566d0b"/>
    </g>
    <g id="Body_Long_Sleeve_1" data-name="Body/Long Sleeve 1" transform="translate(89.224 82)">
      <path id="Skin-2" data-name="Skin" d="M54.362,51.452l15.247-8.376s3.208-12.21,7.672-12.287c1.151-.536.712,1.809.547,4.153-.163,2.309-.059,4.619,2.091,4.177,4.333-.892,14.908-8.757,16.73-7.16,2.7,2.363.293,9.617-2.54,13.226-5.294,6.745-9.676,9.051-20.508,12.072-8.5,2.369-18.37,9.5-18.37,9.5ZM0,35.412,34.709,16.4A85.868,85.868,0,0,1,51.771.432c1.712-.715,4.705-1.148,1.906,3.821s-5.521,10.321-4.1,11.852c.626.672,1.664.636,2.776.6,1.417-.045,2.955-.091,3.909,1.336q1.7,2.543-18.228,8.036L12.818,49.169Z" transform="translate(81.414 7.288)" fill="#997659"/>
      <path id="Sleeve" d="M5.5,6.364A85.286,85.286,0,0,0,52.75,0l4.34,16.026C43.453,25.855,25.36,32.84,10.935,30.139-.433,28.009-4.081,13.273,5.5,6.364Z" transform="translate(58.077 33.041) rotate(-9)" fill="#566d0b"/>
      <path id="Clothes" d="M33.421,142.48c-12.21-1.587-23.571-3.173-30.172-1.874C-8.069,103.851,13.814,88.915,13.831,65.4,13.851,39.642,34.53,0,37.573,0H65.32c1.53,19.659,9.229,41.325,15.551,62.729,20.164,4.578,64.941-11.356,64.941-11.356s11.3,23.385,10.451,33.343c-26.064,13.615-48.4,19.685-66.8,20.085.585,10.919-.745,21.311-5.209,30.8-3.341,7.1-12.583,9.227-23.862,9.227C51.995,144.832,42.473,143.656,33.421,142.48Z" transform="translate(0)" fill="#7ea00e"/>
    </g>
  </g>
</svg>
